<svg xmlns="http://www.w3.org/2000/svg" viewBox="0 0 512 512" width="64" height="64">
  <!-- Corpo principal do tubarão -->
  <path d="M480 256c-40-16-88-40-128-64 24-40 32-80 32-80s-48 32-96 48c-56 20-112 16-176-16 8 24 16 48 16 48s-48 8-96-16c16 56 48 96 96 128s112 48 176 32c48-16 96-48 96-48s-8-32-32-80c40-16 88-32 128-32z" fill="#B97E68"></path>
  
  <!-- Nadadeira dorsal -->
  <path d="M224 128c-24-32-64-48-64-48s8 40 32 64c16 16 32 16 32 16s0-16 0-32z" fill="#B97E68"></path>

  <!-- Cauda -->
  <path d="M64 192c-16-16-48-32-48-32s8 32 24 48c8 8 24 8 24 8s0-8 0-24z" fill="#B97E68"></path>

  <!-- Olho -->
  <circle cx="360" cy="224" r="12" fill="#011b1e"></circle>
</svg>
